<svg xmlns="http://www.w3.org/2000/svg" xmlns:xlink="http://www.w3.org/1999/xlink" width="40" zoomAndPan="magnify" viewBox="0 0 30 30.000001" height="40" preserveAspectRatio="xMidYMid meet" version="1.0"><defs><clipPath id="58148f58ec"><path d="M 0.484375 0 L 29.515625 0 L 29.515625 29.03125 L 0.484375 29.03125 Z M 0.484375 0 " clip-rule="nonzero"/></clipPath><clipPath id="8670be8daf"><path d="M 1.984375 1.5 L 28.113281 1.5 L 28.113281 27.628906 L 1.984375 27.628906 Z M 1.984375 1.5 " clip-rule="nonzero"/></clipPath><clipPath id="52ff58285b"><path d="M 5.71875 7.882812 L 23.863281 7.882812 L 23.863281 20.945312 L 5.71875 20.945312 Z M 5.71875 7.882812 " clip-rule="nonzero"/></clipPath></defs><g clip-path="url(#58148f58ec)"><path fill="#ffffff" d="M 0.484375 0 L 29.515625 0 L 29.515625 29.03125 L 0.484375 29.03125 Z M 0.484375 0 " fill-opacity="1" fill-rule="nonzero"/><path fill="#ffffff" d="M 0.484375 0 L 29.515625 0 L 29.515625 29.03125 L 0.484375 29.03125 Z M 0.484375 0 " fill-opacity="1" fill-rule="nonzero"/></g><g clip-path="url(#8670be8daf)"><path fill="#000000" d="M 15.046875 1.5 C 7.832031 1.5 1.984375 7.347656 1.984375 14.5625 C 1.984375 21.78125 7.832031 27.628906 15.046875 27.628906 C 22.261719 27.628906 28.113281 21.78125 28.113281 14.5625 C 28.113281 7.347656 22.261719 1.5 15.046875 1.5 " fill-opacity="1" fill-rule="nonzero"/></g><g clip-path="url(#52ff58285b)"><path fill="#ffffff" d="M 7.671875 7.882812 C 6.597656 7.882812 5.730469 8.757812 5.730469 9.84375 C 5.753906 12.8125 5.730469 15.957031 5.730469 18.988281 C 5.730469 20.03125 6.535156 20.875 7.550781 20.9375 L 21.992188 20.945312 C 23.03125 20.90625 23.855469 20.042969 23.855469 18.988281 L 23.855469 9.503906 C 23.699219 8.582031 22.902344 7.882812 21.945312 7.882812 C 17.1875 7.882812 12.429688 7.882812 7.671875 7.882812 Z M 7.640625 8.914062 L 22.003906 8.914062 L 15.054688 15.925781 C 14.929688 16.054688 14.726562 16.054688 14.601562 15.925781 Z M 22.882812 9.414062 L 22.882812 18.914062 C 22.882812 19.480469 22.683594 19.800781 22.277344 19.914062 L 17.382812 14.964844 Z M 6.8125 9.453125 L 12.222656 14.914062 L 7.277344 19.90625 C 6.9375 19.789062 6.820312 19.515625 6.8125 19.140625 Z M 12.910156 15.597656 L 14.601562 17.3125 C 14.726562 17.441406 14.929688 17.441406 15.054688 17.3125 L 16.695312 15.660156 L 20.960938 19.96875 L 8.582031 19.96875 Z M 12.910156 15.597656 " fill-opacity="1" fill-rule="nonzero"/></g></svg>