<svg xmlns="http://www.w3.org/2000/svg" xmlns:xlink="http://www.w3.org/1999/xlink" width="434" zoomAndPan="magnify" viewBox="0 0 325.5 103.5" height="138" preserveAspectRatio="xMidYMid meet" version="1.0"><defs><g/></defs><g fill="#000000" fill-opacity="1"><g transform="translate(11.596602, 71.016371)"><g><path d="M 52.046875 -8.203125 C 52.273438 -8.085938 52.351562 -7.90625 52.28125 -7.65625 C 52.21875 -7.40625 52.09375 -7.144531 51.90625 -6.875 C 51.71875 -6.601562 51.546875 -6.375 51.390625 -6.1875 C 51.316406 -6.101562 51.269531 -6.035156 51.25 -5.984375 C 49.894531 -4.109375 48.722656 -2.144531 47.734375 -0.09375 C 46.742188 1.957031 45.8125 4.050781 44.9375 6.1875 C 44.570312 7 44.21875 7.816406 43.875 8.640625 C 43.082031 10.453125 42.3125 12.269531 41.5625 14.09375 C 40.269531 17.21875 38.910156 20.320312 37.484375 23.40625 C 36.972656 24.488281 36.398438 25.539062 35.765625 26.5625 C 35.253906 27.40625 34.476562 27.816406 33.4375 27.796875 C 32.570312 27.816406 32.046875 27.414062 31.859375 26.59375 C 31.671875 25.882812 31.566406 25.164062 31.546875 24.4375 C 31.429688 21.65625 31.5 18.878906 31.75 16.109375 C 31.914062 14.191406 32.066406 12.285156 32.203125 10.390625 C 32.335938 8.328125 32.5 6.269531 32.6875 4.21875 C 33.09375 -0.457031 33.539062 -5.140625 34.03125 -9.828125 C 34.59375 -15.191406 35.179688 -20.539062 35.796875 -25.875 C 36.867188 -34.925781 37.820312 -44.003906 38.65625 -53.109375 C 38.695312 -53.679688 38.707031 -54.148438 38.6875 -54.515625 C 38.664062 -54.890625 38.582031 -55.03125 38.4375 -54.9375 C 38.300781 -54.84375 38.085938 -54.40625 37.796875 -53.625 C 35.097656 -45.863281 32.601562 -38.039062 30.3125 -30.15625 C 30.21875 -29.863281 30.140625 -29.582031 30.078125 -29.3125 C 28.710938 -24.625 27.328125 -19.957031 25.921875 -15.3125 C 25.398438 -13.5 24.796875 -11.664062 24.109375 -9.8125 C 23.429688 -7.957031 22.644531 -6.210938 21.75 -4.578125 C 21.476562 -4.097656 21.125 -3.769531 20.6875 -3.59375 C 20.257812 -3.425781 19.769531 -3.375 19.21875 -3.4375 C 18.644531 -3.488281 18.222656 -3.765625 17.953125 -4.265625 C 17.722656 -4.742188 17.582031 -5.257812 17.53125 -5.8125 C 17.46875 -6.457031 17.398438 -7.109375 17.328125 -7.765625 C 17.148438 -9.222656 17.003906 -10.671875 16.890625 -12.109375 C 16.566406 -16.148438 16.144531 -20.203125 15.625 -24.265625 C 15.101562 -28.335938 14.425781 -32.359375 13.59375 -36.328125 C 13.363281 -37.335938 13.023438 -37.3125 12.578125 -36.25 C 12.140625 -35.1875 11.640625 -33.410156 11.078125 -30.921875 C 10.523438 -28.429688 9.929688 -25.5625 9.296875 -22.3125 C 8.671875 -19.070312 8.066406 -15.769531 7.484375 -12.40625 C 6.910156 -9.050781 6.378906 -5.984375 5.890625 -3.203125 C 5.160156 1.109375 4.671875 3.859375 4.421875 5.046875 C 4.210938 5.898438 3.925781 6.707031 3.5625 7.46875 C 3.394531 7.8125 3.160156 8.039062 2.859375 8.15625 C 2.566406 8.269531 2.242188 8.304688 1.890625 8.265625 C 1.160156 8.171875 0.710938 7.75 0.546875 7 C 0.484375 6.613281 0.453125 6.21875 0.453125 5.8125 C 0.421875 5.488281 0.40625 5.164062 0.40625 4.84375 C 0.34375 3.582031 0.300781 2.316406 0.28125 1.046875 C 0.09375 -8.753906 0.148438 -18.566406 0.453125 -28.390625 C 0.648438 -34.597656 0.832031 -40.820312 1 -47.0625 C 1 -47.71875 1 -48.390625 1 -49.078125 C 0.976562 -49.710938 0.976562 -50.363281 1 -51.03125 C 1.019531 -51.539062 1.207031 -51.890625 1.5625 -52.078125 C 1.914062 -52.273438 2.328125 -52.269531 2.796875 -52.0625 C 2.984375 -52 3.109375 -51.894531 3.171875 -51.75 C 3.242188 -51.613281 3.289062 -51.457031 3.3125 -51.28125 C 3.519531 -49.5625 3.59375 -47.847656 3.53125 -46.140625 C 3.5 -45.109375 3.460938 -44.082031 3.421875 -43.0625 C 3.347656 -40.238281 3.253906 -37.421875 3.140625 -34.609375 C 3.003906 -30.992188 2.914062 -27.378906 2.875 -23.765625 C 2.820312 -21.097656 2.765625 -18.425781 2.703125 -15.75 C 2.628906 -12.90625 2.601562 -10.070312 2.625 -7.25 C 2.625 -5.3125 2.613281 -3.347656 2.59375 -1.359375 C 2.59375 -1.242188 2.601562 -1.066406 2.625 -0.828125 C 2.65625 -0.585938 2.695312 -0.332031 2.75 -0.0625 C 2.8125 0.195312 2.867188 0.40625 2.921875 0.5625 C 2.984375 0.71875 3.050781 0.753906 3.125 0.671875 C 3.207031 0.597656 3.285156 0.34375 3.359375 -0.09375 C 3.554688 -1.351562 3.785156 -2.769531 4.046875 -4.34375 C 4.617188 -8.0625 5.296875 -12.160156 6.078125 -16.640625 C 6.859375 -21.117188 7.742188 -25.347656 8.734375 -29.328125 C 9.722656 -33.304688 10.785156 -36.398438 11.921875 -38.609375 C 12.398438 -39.398438 12.992188 -39.78125 13.703125 -39.75 C 14.410156 -39.726562 14.984375 -39.300781 15.421875 -38.46875 C 15.984375 -37.113281 16.457031 -35.457031 16.84375 -33.5 C 17.238281 -31.550781 17.566406 -29.519531 17.828125 -27.40625 C 18.085938 -25.300781 18.3125 -23.320312 18.5 -21.46875 C 18.59375 -20.46875 18.6875 -19.554688 18.78125 -18.734375 C 18.914062 -17.421875 19.039062 -16.222656 19.15625 -15.140625 C 19.425781 -12.554688 19.675781 -10.539062 19.90625 -9.09375 C 20.132812 -7.65625 20.441406 -6.9375 20.828125 -6.9375 C 21.210938 -6.9375 21.742188 -7.832031 22.421875 -9.625 C 23.097656 -11.414062 24.015625 -14.265625 25.171875 -18.171875 C 26.222656 -21.785156 27.21875 -25.269531 28.15625 -28.625 C 29.382812 -33.050781 30.660156 -37.453125 31.984375 -41.828125 C 33.316406 -46.203125 34.875 -50.765625 36.65625 -55.515625 C 37.1875 -56.878906 37.734375 -58.007812 38.296875 -58.90625 C 38.867188 -59.800781 39.425781 -60.269531 39.96875 -60.3125 C 40.175781 -60.34375 40.382812 -60.316406 40.59375 -60.234375 C 40.800781 -60.148438 40.984375 -59.910156 41.140625 -59.515625 C 41.304688 -59.128906 41.398438 -58.476562 41.421875 -57.5625 C 41.460938 -56.039062 41.429688 -54.515625 41.328125 -52.984375 C 41.222656 -51.453125 41.101562 -49.921875 40.96875 -48.390625 C 40.945312 -48.203125 40.9375 -48.03125 40.9375 -47.875 C 40.175781 -40.039062 39.332031 -32.222656 38.40625 -24.421875 C 37.8125 -19.316406 37.238281 -14.222656 36.6875 -9.140625 C 36.6875 -9.023438 36.675781 -8.894531 36.65625 -8.75 C 36.15625 -4.007812 35.6875 0.738281 35.25 5.5 C 34.882812 9.664062 34.550781 13.84375 34.25 18.03125 C 34.226562 18.394531 34.207031 18.773438 34.1875 19.171875 C 34.125 20.234375 34.082031 21.300781 34.0625 22.375 C 34.0625 22.769531 34.0625 23.148438 34.0625 23.515625 C 34.039062 23.628906 34.050781 23.722656 34.09375 23.796875 C 34.132812 23.878906 34.222656 23.921875 34.359375 23.921875 C 34.398438 23.921875 34.445312 23.90625 34.5 23.875 C 34.5625 23.84375 34.601562 23.789062 34.625 23.71875 C 36 20.882812 37.34375 18.054688 38.65625 15.234375 C 39.875 12.515625 41.128906 9.796875 42.421875 7.078125 C 43.710938 4.367188 45.082031 1.679688 46.53125 -0.984375 C 47.707031 -3.222656 48.800781 -5.015625 49.8125 -6.359375 C 50.820312 -7.703125 51.566406 -8.316406 52.046875 -8.203125 Z M 52.046875 -8.203125 "/></g></g></g><g fill="#000000" fill-opacity="1"><g transform="translate(62.401391, 71.016371)"><g><path d="M 17.609375 -8 C 17.328125 -7.132812 16.765625 -6.132812 15.921875 -5 C 15.078125 -3.875 14.019531 -3.148438 12.75 -2.828125 C 11.488281 -2.503906 10.394531 -2.546875 9.46875 -2.953125 C 8.539062 -3.367188 8.03125 -4.472656 7.9375 -6.265625 C 6.894531 -4.222656 5.894531 -2.914062 4.9375 -2.34375 C 3.988281 -1.78125 3.003906 -1.566406 1.984375 -1.703125 C 0.816406 -1.890625 0.03125 -2.335938 -0.375 -3.046875 C -0.789062 -3.765625 -0.929688 -4.59375 -0.796875 -5.53125 C -0.660156 -6.46875 -0.375 -7.367188 0.0625 -8.234375 C 0.40625 -8.878906 0.878906 -9.476562 1.484375 -10.03125 C 2.085938 -10.582031 2.722656 -11.015625 3.390625 -11.328125 C 4.210938 -11.734375 5.035156 -11.925781 5.859375 -11.90625 C 6.691406 -11.882812 7.582031 -11.613281 8.53125 -11.09375 C 8.550781 -11.070312 8.5625 -11.09375 8.5625 -11.15625 C 8.5625 -11.25 8.582031 -11.363281 8.625 -11.5 C 8.675781 -11.632812 8.757812 -11.742188 8.875 -11.828125 C 9.1875 -12.054688 9.554688 -12.171875 9.984375 -12.171875 C 10.410156 -12.171875 10.738281 -11.957031 10.96875 -11.53125 C 11.007812 -10.988281 10.953125 -10.289062 10.796875 -9.4375 C 10.453125 -7.570312 10.453125 -6.226562 10.796875 -5.40625 C 11.140625 -4.582031 11.742188 -4.195312 12.609375 -4.25 C 13.472656 -4.3125 14.59375 -5.171875 15.96875 -6.828125 C 17.351562 -8.484375 17.898438 -8.875 17.609375 -8 Z M 2.28125 -3.609375 C 2.757812 -3.265625 3.304688 -3.3125 3.921875 -3.75 C 4.546875 -4.1875 5.144531 -4.804688 5.71875 -5.609375 C 6.289062 -6.410156 6.769531 -7.207031 7.15625 -8 C 7.539062 -8.800781 7.753906 -9.394531 7.796875 -9.78125 C 6.640625 -10.40625 5.644531 -10.507812 4.8125 -10.09375 C 3.976562 -9.6875 3.316406 -9.019531 2.828125 -8.09375 C 2.335938 -7.164062 2.046875 -6.257812 1.953125 -5.375 C 1.859375 -4.5 1.96875 -3.910156 2.28125 -3.609375 Z M 2.28125 -3.609375 "/></g></g></g><g fill="#000000" fill-opacity="1"><g transform="translate(78.905552, 71.016371)"><g><path d="M 9.9375 -7.453125 C 10.132812 -7.859375 10.269531 -8.046875 10.34375 -8.015625 C 10.414062 -7.984375 10.429688 -7.816406 10.390625 -7.515625 C 10.359375 -7.222656 10.296875 -6.894531 10.203125 -6.53125 C 10.066406 -5.957031 9.832031 -5.289062 9.5 -4.53125 C 9.164062 -3.78125 8.796875 -3.097656 8.390625 -2.484375 C 7.785156 -1.640625 7.039062 -1 6.15625 -0.5625 C 5.269531 -0.132812 4.460938 -0.03125 3.734375 -0.25 C 3.015625 -0.46875 2.597656 -1.144531 2.484375 -2.28125 C 2.460938 -3.238281 2.546875 -4.289062 2.734375 -5.4375 C 2.796875 -5.914062 2.863281 -6.378906 2.9375 -6.828125 C 2.9375 -6.992188 2.894531 -7.117188 2.8125 -7.203125 C 2.726562 -7.296875 2.617188 -7.332031 2.484375 -7.3125 C 2.390625 -7.3125 2.289062 -7.3125 2.1875 -7.3125 C 1.613281 -7.21875 1.03125 -7.226562 0.4375 -7.34375 C -0.269531 -7.550781 -0.679688 -7.898438 -0.796875 -8.390625 C -0.910156 -8.890625 -0.898438 -9.539062 -0.765625 -10.34375 C -0.691406 -10.914062 -0.476562 -11.34375 -0.125 -11.625 C 0.226562 -11.90625 0.644531 -12.019531 1.125 -11.96875 C 1.789062 -11.90625 2.113281 -11.648438 2.09375 -11.203125 C 2.070312 -10.765625 1.945312 -10.289062 1.71875 -9.78125 C 1.507812 -9.351562 1.398438 -8.992188 1.390625 -8.703125 C 1.378906 -8.421875 1.625 -8.320312 2.125 -8.40625 C 2.226562 -8.4375 2.347656 -8.472656 2.484375 -8.515625 C 2.671875 -8.585938 2.882812 -8.648438 3.125 -8.703125 C 3.363281 -8.765625 3.675781 -8.78125 4.0625 -8.75 C 4.519531 -8.726562 4.820312 -8.515625 4.96875 -8.109375 C 5.125 -7.710938 5.191406 -7.210938 5.171875 -6.609375 C 5.148438 -6.015625 5.09375 -5.40625 5 -4.78125 C 4.882812 -4 4.828125 -3.332031 4.828125 -2.78125 C 4.828125 -2.226562 4.988281 -1.90625 5.3125 -1.8125 C 5.738281 -1.695312 6.375 -2.082031 7.21875 -2.96875 C 8.0625 -3.851562 8.96875 -5.347656 9.9375 -7.453125 Z M 9.9375 -7.453125 "/></g></g></g><g fill="#000000" fill-opacity="1"><g transform="translate(88.43437, 71.016371)"><g><path d="M 8.078125 -6.3125 C 7.753906 -5.65625 7.207031 -4.921875 6.4375 -4.109375 C 5.664062 -3.296875 4.785156 -2.78125 3.796875 -2.5625 C 2.816406 -2.351562 1.882812 -2.691406 1 -3.578125 C 0.65625 -3.972656 0.398438 -4.425781 0.234375 -4.9375 C 0.078125 -5.457031 0.0195312 -5.96875 0.0625 -6.46875 C 0.0625 -6.601562 0.0625 -6.769531 0.0625 -6.96875 C 0.0625 -7.5 0.0820312 -8.113281 0.125 -8.8125 C 0.175781 -9.507812 0.28125 -10.132812 0.4375 -10.6875 C 0.601562 -11.25 0.859375 -11.585938 1.203125 -11.703125 C 2.179688 -11.953125 2.710938 -11.613281 2.796875 -10.6875 C 2.796875 -10.382812 2.785156 -10.082031 2.765625 -9.78125 C 2.742188 -9.625 2.734375 -9.476562 2.734375 -9.34375 C 2.710938 -8.90625 2.691406 -8.46875 2.671875 -8.03125 C 2.671875 -7.6875 2.65625 -7.34375 2.625 -7 C 2.601562 -5.5 2.941406 -4.601562 3.640625 -4.3125 C 4.335938 -4.03125 5.128906 -4.335938 6.015625 -5.234375 C 6.910156 -6.128906 7.492188 -6.867188 7.765625 -7.453125 C 8.046875 -8.046875 8.25 -8.171875 8.375 -7.828125 C 8.5 -7.484375 8.398438 -6.976562 8.078125 -6.3125 Z M 2.59375 -14.921875 C 2.457031 -14.804688 2.296875 -14.734375 2.109375 -14.703125 C 1.921875 -14.671875 1.753906 -14.6875 1.609375 -14.75 C 1.492188 -14.84375 1.421875 -14.960938 1.390625 -15.109375 C 1.359375 -15.265625 1.34375 -15.445312 1.34375 -15.65625 C 1.34375 -15.695312 1.351562 -15.738281 1.375 -15.78125 C 1.394531 -15.957031 1.441406 -16.140625 1.515625 -16.328125 C 1.722656 -16.828125 2.148438 -17.054688 2.796875 -17.015625 C 3.023438 -16.984375 3.203125 -16.890625 3.328125 -16.734375 C 3.460938 -16.578125 3.492188 -16.394531 3.421875 -16.1875 C 3.265625 -15.6875 2.988281 -15.265625 2.59375 -14.921875 Z M 2.59375 -14.921875 "/></g></g></g><g fill="#000000" fill-opacity="1"><g transform="translate(96.079221, 71.016371)"><g><path d="M 17.609375 -8 C 17.328125 -7.132812 16.765625 -6.132812 15.921875 -5 C 15.078125 -3.875 14.019531 -3.148438 12.75 -2.828125 C 11.488281 -2.503906 10.394531 -2.546875 9.46875 -2.953125 C 8.539062 -3.367188 8.03125 -4.472656 7.9375 -6.265625 C 6.894531 -4.222656 5.894531 -2.914062 4.9375 -2.34375 C 3.988281 -1.78125 3.003906 -1.566406 1.984375 -1.703125 C 0.816406 -1.890625 0.03125 -2.335938 -0.375 -3.046875 C -0.789062 -3.765625 -0.929688 -4.59375 -0.796875 -5.53125 C -0.660156 -6.46875 -0.375 -7.367188 0.0625 -8.234375 C 0.40625 -8.878906 0.878906 -9.476562 1.484375 -10.03125 C 2.085938 -10.582031 2.722656 -11.015625 3.390625 -11.328125 C 4.210938 -11.734375 5.035156 -11.925781 5.859375 -11.90625 C 6.691406 -11.882812 7.582031 -11.613281 8.53125 -11.09375 C 8.550781 -11.070312 8.5625 -11.09375 8.5625 -11.15625 C 8.5625 -11.25 8.582031 -11.363281 8.625 -11.5 C 8.675781 -11.632812 8.757812 -11.742188 8.875 -11.828125 C 9.1875 -12.054688 9.554688 -12.171875 9.984375 -12.171875 C 10.410156 -12.171875 10.738281 -11.957031 10.96875 -11.53125 C 11.007812 -10.988281 10.953125 -10.289062 10.796875 -9.4375 C 10.453125 -7.570312 10.453125 -6.226562 10.796875 -5.40625 C 11.140625 -4.582031 11.742188 -4.195312 12.609375 -4.25 C 13.472656 -4.3125 14.59375 -5.171875 15.96875 -6.828125 C 17.351562 -8.484375 17.898438 -8.875 17.609375 -8 Z M 2.28125 -3.609375 C 2.757812 -3.265625 3.304688 -3.3125 3.921875 -3.75 C 4.546875 -4.1875 5.144531 -4.804688 5.71875 -5.609375 C 6.289062 -6.410156 6.769531 -7.207031 7.15625 -8 C 7.539062 -8.800781 7.753906 -9.394531 7.796875 -9.78125 C 6.640625 -10.40625 5.644531 -10.507812 4.8125 -10.09375 C 3.976562 -9.6875 3.316406 -9.019531 2.828125 -8.09375 C 2.335938 -7.164062 2.046875 -6.257812 1.953125 -5.375 C 1.859375 -4.5 1.96875 -3.910156 2.28125 -3.609375 Z M 2.28125 -3.609375 "/></g></g></g><g fill="#000000" fill-opacity="1"><g transform="translate(112.583382, 71.016371)"><g><path d="M 12.875 -5.984375 C 13.675781 -7.253906 14.148438 -8.0625 14.296875 -8.40625 C 14.453125 -8.75 14.570312 -8.734375 14.65625 -8.359375 C 14.75 -7.984375 14.492188 -7.140625 13.890625 -5.828125 C 13.285156 -4.515625 12.535156 -3.503906 11.640625 -2.796875 C 10.753906 -2.085938 9.921875 -1.820312 9.140625 -2 C 8.367188 -2.1875 7.816406 -2.722656 7.484375 -3.609375 C 7.148438 -4.503906 7.050781 -5.625 7.1875 -6.96875 C 7.1875 -6.988281 7.195312 -7.046875 7.21875 -7.140625 C 7.238281 -7.367188 7.273438 -7.707031 7.328125 -8.15625 C 7.390625 -8.601562 7.429688 -9.066406 7.453125 -9.546875 C 7.484375 -10.023438 7.46875 -10.421875 7.40625 -10.734375 C 7.351562 -11.046875 7.210938 -11.15625 6.984375 -11.0625 C 6.441406 -10.757812 5.90625 -10.164062 5.375 -9.28125 C 4.851562 -8.40625 4.378906 -7.488281 3.953125 -6.53125 C 3.523438 -5.570312 3.222656 -4.796875 3.046875 -4.203125 C 2.972656 -4.015625 2.90625 -3.816406 2.84375 -3.609375 C 2.75 -3.335938 2.644531 -3.066406 2.53125 -2.796875 C 2.238281 -2.023438 1.71875 -1.726562 0.96875 -1.90625 C 0.550781 -2 0.304688 -2.25 0.234375 -2.65625 C 0.210938 -2.976562 0.203125 -3.285156 0.203125 -3.578125 C 0.203125 -3.765625 0.191406 -3.9375 0.171875 -4.09375 C 0.128906 -6.394531 0.0703125 -8.71875 0 -11.0625 C 0.0195312 -11.320312 0.140625 -11.503906 0.359375 -11.609375 C 0.578125 -11.710938 0.835938 -11.765625 1.140625 -11.765625 C 1.367188 -11.765625 1.582031 -11.703125 1.78125 -11.578125 C 1.988281 -11.453125 2.117188 -11.195312 2.171875 -10.8125 C 2.191406 -10.675781 2.203125 -10.539062 2.203125 -10.40625 C 2.222656 -10.332031 2.234375 -10.265625 2.234375 -10.203125 C 2.265625 -9.878906 2.28125 -9.601562 2.28125 -9.375 C 2.28125 -9.03125 2.300781 -8.796875 2.34375 -8.671875 C 2.394531 -8.546875 2.492188 -8.550781 2.640625 -8.6875 C 2.796875 -8.820312 3.046875 -9.144531 3.390625 -9.65625 C 3.984375 -10.570312 4.71875 -11.34375 5.59375 -11.96875 C 6.394531 -12.539062 7.269531 -12.78125 8.21875 -12.6875 C 9.039062 -12.601562 9.59375 -12.171875 9.875 -11.390625 C 9.988281 -11.003906 10.046875 -10.609375 10.046875 -10.203125 C 10.046875 -9.804688 10.019531 -9.40625 9.96875 -9 C 9.945312 -8.582031 9.914062 -8.15625 9.875 -7.71875 C 9.84375 -7.582031 9.816406 -7.445312 9.796875 -7.3125 C 9.660156 -5.832031 9.707031 -4.835938 9.9375 -4.328125 C 10.164062 -3.828125 10.507812 -3.660156 10.96875 -3.828125 C 11.4375 -4.003906 12.070312 -4.722656 12.875 -5.984375 Z M 12.875 -5.984375 "/></g></g></g><g fill="#000000" fill-opacity="1"><g transform="translate(126.28495, 71.016371)"><g><path d="M 17.609375 -8 C 17.328125 -7.132812 16.765625 -6.132812 15.921875 -5 C 15.078125 -3.875 14.019531 -3.148438 12.75 -2.828125 C 11.488281 -2.503906 10.394531 -2.546875 9.46875 -2.953125 C 8.539062 -3.367188 8.03125 -4.472656 7.9375 -6.265625 C 6.894531 -4.222656 5.894531 -2.914062 4.9375 -2.34375 C 3.988281 -1.78125 3.003906 -1.566406 1.984375 -1.703125 C 0.816406 -1.890625 0.03125 -2.335938 -0.375 -3.046875 C -0.789062 -3.765625 -0.929688 -4.59375 -0.796875 -5.53125 C -0.660156 -6.46875 -0.375 -7.367188 0.0625 -8.234375 C 0.40625 -8.878906 0.878906 -9.476562 1.484375 -10.03125 C 2.085938 -10.582031 2.722656 -11.015625 3.390625 -11.328125 C 4.210938 -11.734375 5.035156 -11.925781 5.859375 -11.90625 C 6.691406 -11.882812 7.582031 -11.613281 8.53125 -11.09375 C 8.550781 -11.070312 8.5625 -11.09375 8.5625 -11.15625 C 8.5625 -11.25 8.582031 -11.363281 8.625 -11.5 C 8.675781 -11.632812 8.757812 -11.742188 8.875 -11.828125 C 9.1875 -12.054688 9.554688 -12.171875 9.984375 -12.171875 C 10.410156 -12.171875 10.738281 -11.957031 10.96875 -11.53125 C 11.007812 -10.988281 10.953125 -10.289062 10.796875 -9.4375 C 10.453125 -7.570312 10.453125 -6.226562 10.796875 -5.40625 C 11.140625 -4.582031 11.742188 -4.195312 12.609375 -4.25 C 13.472656 -4.3125 14.59375 -5.171875 15.96875 -6.828125 C 17.351562 -8.484375 17.898438 -8.875 17.609375 -8 Z M 2.28125 -3.609375 C 2.757812 -3.265625 3.304688 -3.3125 3.921875 -3.75 C 4.546875 -4.1875 5.144531 -4.804688 5.71875 -5.609375 C 6.289062 -6.410156 6.769531 -7.207031 7.15625 -8 C 7.539062 -8.800781 7.753906 -9.394531 7.796875 -9.78125 C 6.640625 -10.40625 5.644531 -10.507812 4.8125 -10.09375 C 3.976562 -9.6875 3.316406 -9.019531 2.828125 -8.09375 C 2.335938 -7.164062 2.046875 -6.257812 1.953125 -5.375 C 1.859375 -4.5 1.96875 -3.910156 2.28125 -3.609375 Z M 2.28125 -3.609375 "/></g></g></g><g fill="#000000" fill-opacity="1"><g transform="translate(142.78911, 71.016371)"><g/></g></g><g fill="#000000" fill-opacity="1"><g transform="translate(150.698652, 71.016371)"><g><path d="M 63.203125 10.21875 C 63.296875 10.40625 63.351562 10.601562 63.375 10.8125 C 63.414062 11.101562 63.289062 11.296875 63 11.390625 C 62.101562 11.703125 61.429688 11.460938 60.984375 10.671875 C 60.660156 10.097656 60.363281 9.503906 60.09375 8.890625 C 59.46875 7.429688 58.910156 5.941406 58.421875 4.421875 C 57.929688 2.898438 57.476562 1.375 57.0625 -0.15625 C 56.707031 -1.507812 56.359375 -2.859375 56.015625 -4.203125 C 55.785156 -5.160156 55.546875 -6.117188 55.296875 -7.078125 C 55.179688 -7.554688 55.039062 -7.851562 54.875 -7.96875 C 54.71875 -8.082031 54.398438 -8.128906 53.921875 -8.109375 C 52.367188 -8.015625 50.816406 -7.921875 49.265625 -7.828125 C 47.640625 -7.734375 46.015625 -7.65625 44.390625 -7.59375 C 43.984375 -7.5625 43.679688 -7.441406 43.484375 -7.234375 C 43.296875 -7.035156 43.15625 -6.757812 43.0625 -6.40625 C 42.0625 -2.632812 40.882812 1.09375 39.53125 4.78125 C 38.625 7.195312 37.617188 9.578125 36.515625 11.921875 C 35.421875 14.265625 34.164062 16.519531 32.75 18.6875 C 31.46875 20.625 29.953125 22.359375 28.203125 23.890625 C 26.453125 25.421875 24.472656 26.445312 22.265625 26.96875 C 19.222656 27.675781 16.332031 27.300781 13.59375 25.84375 C 11.957031 24.9375 10.507812 23.796875 9.25 22.421875 C 5.039062 17.859375 2.109375 12.582031 0.453125 6.59375 C 0.148438 5.5 0 4.378906 0 3.234375 L 0 3.15625 C 0 2.925781 0.0078125 2.6875 0.03125 2.4375 C 0.195312 -0.207031 1.441406 -2.179688 3.765625 -3.484375 C 4.660156 -3.960938 5.578125 -4.34375 6.515625 -4.625 C 7.460938 -4.914062 8.429688 -5.128906 9.421875 -5.265625 C 12.367188 -5.722656 15.328125 -6.125 18.296875 -6.46875 C 23.015625 -6.988281 27.753906 -7.476562 32.515625 -7.9375 C 34.171875 -8.09375 35.828125 -8.226562 37.484375 -8.34375 C 38.285156 -8.382812 39.070312 -8.441406 39.84375 -8.515625 C 40.382812 -8.535156 40.75 -8.609375 40.9375 -8.734375 C 41.125 -8.859375 41.273438 -9.175781 41.390625 -9.6875 C 41.679688 -10.757812 41.96875 -11.84375 42.25 -12.9375 C 44.15625 -21.332031 45.671875 -29.804688 46.796875 -38.359375 C 47.546875 -43.679688 48.140625 -49.015625 48.578125 -54.359375 C 48.691406 -56.046875 48.769531 -57.734375 48.8125 -59.421875 C 48.832031 -60.179688 48.867188 -60.929688 48.921875 -61.671875 C 48.921875 -61.785156 48.921875 -61.898438 48.921875 -62.015625 C 48.921875 -62.242188 48.929688 -62.460938 48.953125 -62.671875 C 48.972656 -63.109375 49.078125 -63.410156 49.265625 -63.578125 C 49.460938 -63.753906 49.78125 -63.84375 50.21875 -63.84375 C 50.65625 -63.863281 50.96875 -63.785156 51.15625 -63.609375 C 51.351562 -63.441406 51.453125 -63.128906 51.453125 -62.671875 C 51.453125 -61.148438 51.453125 -59.578125 51.453125 -57.953125 C 51.453125 -57.273438 51.453125 -56.578125 51.453125 -55.859375 C 51.546875 -51.492188 51.789062 -47.019531 52.1875 -42.4375 C 52.601562 -37.289062 53.171875 -32.160156 53.890625 -27.046875 C 54.617188 -21.734375 55.578125 -16.460938 56.765625 -11.234375 C 56.816406 -10.984375 56.875 -10.742188 56.9375 -10.515625 C 56.976562 -10.367188 57.019531 -10.21875 57.0625 -10.0625 C 57.195312 -9.625 57.492188 -9.429688 57.953125 -9.484375 C 58.941406 -9.503906 59.941406 -9.523438 60.953125 -9.546875 C 61.421875 -9.585938 61.863281 -9.492188 62.28125 -9.265625 C 62.4375 -9.148438 62.515625 -8.976562 62.515625 -8.75 C 62.492188 -8.632812 62.441406 -8.546875 62.359375 -8.484375 C 62.273438 -8.429688 62.191406 -8.40625 62.109375 -8.40625 C 61.628906 -8.382812 61.140625 -8.375 60.640625 -8.375 C 60.410156 -8.351562 60.179688 -8.34375 59.953125 -8.34375 C 59.816406 -8.34375 59.691406 -8.34375 59.578125 -8.34375 C 59.160156 -8.34375 58.757812 -8.332031 58.375 -8.3125 C 57.78125 -8.257812 57.550781 -7.9375 57.6875 -7.34375 C 57.78125 -6.96875 57.882812 -6.582031 58 -6.1875 C 58.34375 -4.632812 58.726562 -3.109375 59.15625 -1.609375 C 59.707031 0.410156 60.300781 2.410156 60.9375 4.390625 C 61.570312 6.378906 62.328125 8.320312 63.203125 10.21875 Z M 40.421875 -6.15625 C 40.554688 -6.601562 40.570312 -6.898438 40.46875 -7.046875 C 40.363281 -7.203125 40.082031 -7.253906 39.625 -7.203125 C 37.71875 -7.066406 35.816406 -6.898438 33.921875 -6.703125 C 33.554688 -6.679688 33.191406 -6.648438 32.828125 -6.609375 C 28.566406 -6.191406 24.316406 -5.742188 20.078125 -5.265625 C 16.929688 -4.898438 13.78125 -4.488281 10.625 -4.03125 C 9.175781 -3.84375 7.769531 -3.460938 6.40625 -2.890625 C 3.707031 -1.773438 2.378906 0.238281 2.421875 3.15625 C 2.441406 4.144531 2.554688 5.128906 2.765625 6.109375 C 3.066406 7.335938 3.453125 8.535156 3.921875 9.703125 C 4.390625 10.867188 4.910156 12.007812 5.484375 13.125 C 6.984375 16.257812 8.914062 19.09375 11.28125 21.625 C 12.507812 22.976562 13.910156 24.085938 15.484375 24.953125 C 18.160156 26.347656 20.820312 26.328125 23.46875 24.890625 C 25.0625 24.046875 26.46875 22.945312 27.6875 21.59375 C 29.507812 19.5625 31.0625 17.347656 32.34375 14.953125 C 35.007812 9.898438 37.175781 4.632812 38.84375 -0.84375 C 39.394531 -2.601562 39.921875 -4.375 40.421875 -6.15625 Z M 54.46875 -9.484375 C 54.488281 -9.503906 54.5 -9.523438 54.5 -9.546875 C 54.519531 -9.566406 54.535156 -9.585938 54.546875 -9.609375 C 54.566406 -9.640625 54.5625 -9.65625 54.53125 -9.65625 C 52.507812 -19.289062 51.023438 -29.015625 50.078125 -38.828125 C 50.035156 -39.148438 49.976562 -39.472656 49.90625 -39.796875 C 49.882812 -39.859375 49.84375 -39.9375 49.78125 -40.03125 C 49.726562 -40.070312 49.679688 -40.140625 49.640625 -40.234375 C 49.523438 -39.410156 49.398438 -38.59375 49.265625 -37.78125 C 49.003906 -35.945312 48.726562 -34.128906 48.4375 -32.328125 C 48.039062 -29.703125 47.609375 -27.085938 47.140625 -24.484375 C 46.867188 -23.015625 46.582031 -21.554688 46.28125 -20.109375 C 46.050781 -18.984375 45.832031 -17.847656 45.625 -16.703125 C 45.394531 -15.585938 45.132812 -14.476562 44.84375 -13.375 C 44.476562 -11.945312 44.164062 -10.5 43.90625 -9.03125 C 44.507812 -8.957031 45.503906 -8.9375 46.890625 -8.96875 C 48.285156 -9.007812 49.707031 -9.078125 51.15625 -9.171875 C 52.601562 -9.265625 53.707031 -9.367188 54.46875 -9.484375 Z M 54.46875 -9.484375 "/></g></g></g><g fill="#000000" fill-opacity="1"><g transform="translate(214.5355, 71.016371)"><g><path d="M 11.421875 -7.484375 C 11.992188 -8.035156 12.238281 -8.171875 12.15625 -7.890625 C 12.082031 -7.617188 11.769531 -7.125 11.21875 -6.40625 C 10.675781 -5.6875 9.992188 -4.90625 9.171875 -4.0625 C 8.347656 -3.21875 7.476562 -2.488281 6.5625 -1.875 C 5.65625 -1.257812 4.789062 -0.925781 3.96875 -0.875 C 2.957031 -0.875 2.148438 -1.171875 1.546875 -1.765625 C 0.941406 -2.359375 0.507812 -3.144531 0.25 -4.125 C -0.0078125 -5.113281 -0.117188 -6.175781 -0.078125 -7.3125 C -0.0234375 -8.59375 0.0195312 -9.875 0.0625 -11.15625 C 0.0820312 -11.789062 0.101562 -12.414062 0.125 -13.03125 C 0.175781 -14.0625 0.210938 -15.085938 0.234375 -16.109375 C 0.253906 -16.429688 0.203125 -16.703125 0.078125 -16.921875 C -0.046875 -17.140625 -0.269531 -17.257812 -0.59375 -17.28125 C -0.957031 -17.300781 -1.414062 -17.3125 -1.96875 -17.3125 C -2.4375 -17.3125 -2.84375 -17.3125 -3.1875 -17.3125 C -3.664062 -17.363281 -3.984375 -17.488281 -4.140625 -17.6875 C -4.304688 -17.894531 -4.179688 -18.101562 -3.765625 -18.3125 C -3.472656 -18.425781 -3.125 -18.488281 -2.71875 -18.5 C -2.3125 -18.507812 -1.910156 -18.503906 -1.515625 -18.484375 C -1.265625 -18.460938 -1.046875 -18.453125 -0.859375 -18.453125 C -0.242188 -18.453125 0.128906 -18.546875 0.265625 -18.734375 C 0.398438 -18.929688 0.484375 -19.316406 0.515625 -19.890625 C 0.554688 -20.484375 0.585938 -21.085938 0.609375 -21.703125 C 0.628906 -22.023438 0.65625 -22.347656 0.6875 -22.671875 C 0.6875 -23.148438 0.8125 -23.582031 1.0625 -23.96875 C 1.332031 -24.332031 1.675781 -24.472656 2.09375 -24.390625 C 2.445312 -24.296875 2.644531 -24.066406 2.6875 -23.703125 C 2.71875 -23.097656 2.734375 -22.488281 2.734375 -21.875 C 2.753906 -21.53125 2.753906 -21.1875 2.734375 -20.84375 C 2.734375 -20.488281 2.742188 -20.113281 2.765625 -19.71875 C 2.742188 -19.175781 2.804688 -18.832031 2.953125 -18.6875 C 3.097656 -18.550781 3.457031 -18.484375 4.03125 -18.484375 C 4.96875 -18.484375 5.894531 -18.484375 6.8125 -18.484375 C 7.21875 -18.484375 8.445312 -18.507812 10.5 -18.5625 C 12.5625 -18.625 13.671875 -18.457031 13.828125 -18.0625 C 13.992188 -17.675781 12.695312 -17.453125 9.9375 -17.390625 C 8.257812 -17.296875 6.96875 -17.25 6.0625 -17.25 C 5.445312 -17.269531 4.894531 -17.28125 4.40625 -17.28125 C 3.582031 -17.28125 3.070312 -17.132812 2.875 -16.84375 C 2.6875 -16.5625 2.601562 -15.992188 2.625 -15.140625 C 2.601562 -14.398438 2.566406 -13.503906 2.515625 -12.453125 C 2.378906 -10.304688 2.3125 -8.117188 2.3125 -5.890625 C 2.363281 -4.347656 2.640625 -3.347656 3.140625 -2.890625 C 3.640625 -2.441406 4.289062 -2.359375 5.09375 -2.640625 C 5.894531 -2.921875 6.757812 -3.425781 7.6875 -4.15625 C 8.613281 -4.894531 9.535156 -5.6875 10.453125 -6.53125 C 10.648438 -6.78125 10.890625 -7.019531 11.171875 -7.25 C 11.265625 -7.332031 11.347656 -7.410156 11.421875 -7.484375 Z M 11.421875 -7.484375 "/></g></g></g><g fill="#000000" fill-opacity="1"><g transform="translate(225.761455, 71.016371)"><g><path d="M 15.25 -7.5625 C 16.132812 -8.539062 16.597656 -8.914062 16.640625 -8.6875 C 16.691406 -8.457031 16.503906 -7.925781 16.078125 -7.09375 C 15.660156 -6.257812 15.003906 -5.546875 14.109375 -4.953125 C 13.453125 -4.546875 12.882812 -4.269531 12.40625 -4.125 C 11.9375 -3.988281 11.515625 -3.910156 11.140625 -3.890625 C 10.378906 -3.847656 9.796875 -4.066406 9.390625 -4.546875 C 8.992188 -5.023438 8.71875 -5.640625 8.5625 -6.390625 C 8.40625 -7.140625 8.289062 -7.914062 8.21875 -8.71875 C 8.144531 -9.226562 8.078125 -9.6875 8.015625 -10.09375 C 7.921875 -10.738281 7.734375 -11.09375 7.453125 -11.15625 C 7.179688 -11.226562 6.765625 -10.816406 6.203125 -9.921875 C 5.609375 -8.960938 5.085938 -7.90625 4.640625 -6.75 C 4.191406 -5.601562 3.796875 -4.476562 3.453125 -3.375 C 3.429688 -3.332031 3.410156 -3.273438 3.390625 -3.203125 C 3.316406 -3.046875 3.257812 -2.882812 3.21875 -2.71875 C 3.082031 -2.269531 2.921875 -1.828125 2.734375 -1.390625 C 2.578125 -1.023438 2.3125 -0.785156 1.9375 -0.671875 C 1.5625 -0.554688 1.164062 -0.582031 0.75 -0.75 C 0.476562 -0.863281 0.296875 -1.054688 0.203125 -1.328125 C 0.0664062 -1.742188 0.0195312 -2.160156 0.0625 -2.578125 C 0.0625 -2.628906 0.0625 -2.664062 0.0625 -2.6875 C 0.15625 -4.5 0.171875 -7.503906 0.109375 -11.703125 C 0.0546875 -15.054688 0.03125 -18.664062 0.03125 -22.53125 C 0.03125 -26.394531 0.128906 -30.039062 0.328125 -33.46875 C 0.523438 -36.894531 0.863281 -39.632812 1.34375 -41.6875 C 1.550781 -42.4375 1.890625 -43.109375 2.359375 -43.703125 C 2.835938 -44.296875 3.367188 -44.617188 3.953125 -44.671875 C 4.535156 -44.734375 5.082031 -44.335938 5.59375 -43.484375 C 5.9375 -42.765625 6.148438 -41.992188 6.234375 -41.171875 C 6.460938 -38.742188 6.253906 -35.007812 5.609375 -29.96875 C 4.972656 -24.9375 4.304688 -20.53125 3.609375 -16.75 C 2.910156 -12.976562 2.5625 -9.820312 2.5625 -7.28125 C 2.789062 -7.664062 3.019531 -8.078125 3.25 -8.515625 C 3.570312 -9.160156 3.929688 -9.800781 4.328125 -10.4375 C 4.734375 -11.070312 5.207031 -11.613281 5.75 -12.0625 C 6.300781 -12.507812 6.960938 -12.789062 7.734375 -12.90625 C 8.265625 -12.988281 8.800781 -12.953125 9.34375 -12.796875 C 9.894531 -12.640625 10.265625 -12.257812 10.453125 -11.65625 C 10.679688 -10.613281 10.757812 -9.5 10.6875 -8.3125 C 10.6875 -7.0625 10.898438 -6.269531 11.328125 -5.9375 C 11.765625 -5.601562 12.304688 -5.546875 12.953125 -5.765625 C 13.609375 -5.984375 14.375 -6.582031 15.25 -7.5625 Z M 3.625 -39.75 C 3.507812 -38.457031 3.378906 -36.289062 3.234375 -33.25 C 3.085938 -30.21875 2.960938 -27.175781 2.859375 -24.125 C 2.753906 -21.070312 2.703125 -18.53125 2.703125 -16.5 C 2.953125 -18.332031 3.253906 -20.710938 3.609375 -23.640625 C 3.960938 -26.578125 4.273438 -29.597656 4.546875 -32.703125 C 4.828125 -35.804688 4.96875 -38.132812 4.96875 -39.6875 C 4.945312 -40.507812 4.890625 -41.117188 4.796875 -41.515625 C 4.703125 -41.921875 4.546875 -42.066406 4.328125 -41.953125 C 4.109375 -41.835938 3.941406 -41.546875 3.828125 -41.078125 C 3.710938 -40.609375 3.644531 -40.164062 3.625 -39.75 Z M 3.625 -39.75 "/></g></g></g><g fill="#000000" fill-opacity="1"><g transform="translate(241.564979, 71.016371)"><g><path d="M 17.609375 -8 C 17.328125 -7.132812 16.765625 -6.132812 15.921875 -5 C 15.078125 -3.875 14.019531 -3.148438 12.75 -2.828125 C 11.488281 -2.503906 10.394531 -2.546875 9.46875 -2.953125 C 8.539062 -3.367188 8.03125 -4.472656 7.9375 -6.265625 C 6.894531 -4.222656 5.894531 -2.914062 4.9375 -2.34375 C 3.988281 -1.78125 3.003906 -1.566406 1.984375 -1.703125 C 0.816406 -1.890625 0.03125 -2.335938 -0.375 -3.046875 C -0.789062 -3.765625 -0.929688 -4.59375 -0.796875 -5.53125 C -0.660156 -6.46875 -0.375 -7.367188 0.0625 -8.234375 C 0.40625 -8.878906 0.878906 -9.476562 1.484375 -10.03125 C 2.085938 -10.582031 2.722656 -11.015625 3.390625 -11.328125 C 4.210938 -11.734375 5.035156 -11.925781 5.859375 -11.90625 C 6.691406 -11.882812 7.582031 -11.613281 8.53125 -11.09375 C 8.550781 -11.070312 8.5625 -11.09375 8.5625 -11.15625 C 8.5625 -11.25 8.582031 -11.363281 8.625 -11.5 C 8.675781 -11.632812 8.757812 -11.742188 8.875 -11.828125 C 9.1875 -12.054688 9.554688 -12.171875 9.984375 -12.171875 C 10.410156 -12.171875 10.738281 -11.957031 10.96875 -11.53125 C 11.007812 -10.988281 10.953125 -10.289062 10.796875 -9.4375 C 10.453125 -7.570312 10.453125 -6.226562 10.796875 -5.40625 C 11.140625 -4.582031 11.742188 -4.195312 12.609375 -4.25 C 13.472656 -4.3125 14.59375 -5.171875 15.96875 -6.828125 C 17.351562 -8.484375 17.898438 -8.875 17.609375 -8 Z M 2.28125 -3.609375 C 2.757812 -3.265625 3.304688 -3.3125 3.921875 -3.75 C 4.546875 -4.1875 5.144531 -4.804688 5.71875 -5.609375 C 6.289062 -6.410156 6.769531 -7.207031 7.15625 -8 C 7.539062 -8.800781 7.753906 -9.394531 7.796875 -9.78125 C 6.640625 -10.40625 5.644531 -10.507812 4.8125 -10.09375 C 3.976562 -9.6875 3.316406 -9.019531 2.828125 -8.09375 C 2.335938 -7.164062 2.046875 -6.257812 1.953125 -5.375 C 1.859375 -4.5 1.96875 -3.910156 2.28125 -3.609375 Z M 2.28125 -3.609375 "/></g></g></g><g fill="#000000" fill-opacity="1"><g transform="translate(258.06914, 71.016371)"><g><path d="M 17.578125 -7.859375 C 17.941406 -7.835938 18.003906 -7.65625 17.765625 -7.3125 C 17.523438 -6.976562 17.117188 -6.546875 16.546875 -6.015625 C 15.984375 -5.492188 15.367188 -4.945312 14.703125 -4.375 C 13.804688 -3.613281 13.082031 -2.957031 12.53125 -2.40625 C 11.914062 -1.894531 11.421875 -1.175781 11.046875 -0.25 C 10.671875 0.675781 10.484375 1.523438 10.484375 2.296875 C 10.484375 2.710938 10.484375 3.207031 10.484375 3.78125 C 10.503906 4.945312 10.503906 6.347656 10.484375 7.984375 C 10.460938 9.617188 10.367188 11.304688 10.203125 13.046875 C 10.046875 14.796875 9.753906 16.4375 9.328125 17.96875 C 8.910156 19.5 8.3125 20.75 7.53125 21.71875 C 6.757812 22.6875 5.769531 23.21875 4.5625 23.3125 C 2.25 23.375 0.660156 22.414062 -0.203125 20.4375 C -0.867188 18.757812 -1.09375 17.039062 -0.875 15.28125 C -0.65625 13.53125 -0.164062 11.816406 0.59375 10.140625 C 1.363281 8.472656 2.226562 6.9375 3.1875 5.53125 C 4.144531 4.132812 5.046875 2.960938 5.890625 2.015625 C 6.734375 1.066406 7.335938 0.429688 7.703125 0.109375 C 7.859375 -0.410156 7.945312 -1.007812 7.96875 -1.6875 C 8 -2.375 8.003906 -3.039062 7.984375 -3.6875 C 7.953125 -3.894531 7.9375 -4.078125 7.9375 -4.234375 C 7.476562 -3.523438 7.003906 -3.023438 6.515625 -2.734375 C 6.035156 -2.453125 5.546875 -2.300781 5.046875 -2.28125 C 4.554688 -2.257812 4.09375 -2.269531 3.65625 -2.3125 C 3.613281 -2.3125 3.570312 -2.3125 3.53125 -2.3125 C 2.53125 -2.445312 1.738281 -2.921875 1.15625 -3.734375 C 0.570312 -4.546875 0.191406 -5.46875 0.015625 -6.5 C -0.148438 -7.539062 -0.101562 -8.472656 0.15625 -9.296875 C 0.414062 -10.128906 0.890625 -10.613281 1.578125 -10.75 C 1.859375 -10.820312 2.164062 -10.859375 2.5 -10.859375 C 2.84375 -10.859375 3.128906 -10.8125 3.359375 -10.71875 C 3.585938 -10.625 3.664062 -10.453125 3.59375 -10.203125 C 3.382812 -9.347656 3.265625 -8.425781 3.234375 -7.4375 C 3.203125 -6.445312 3.285156 -5.582031 3.484375 -4.84375 C 3.691406 -4.113281 4.054688 -3.71875 4.578125 -3.65625 C 5.109375 -3.601562 5.8125 -4.082031 6.6875 -5.09375 C 7.09375 -5.625 7.375 -6.164062 7.53125 -6.71875 C 7.6875 -7.269531 7.8125 -7.867188 7.90625 -8.515625 C 7.925781 -8.742188 7.960938 -8.972656 8.015625 -9.203125 C 8.035156 -9.429688 8.066406 -9.660156 8.109375 -9.890625 C 8.140625 -10.191406 8.175781 -10.488281 8.21875 -10.78125 C 8.332031 -11.25 8.597656 -11.578125 9.015625 -11.765625 C 9.441406 -11.953125 9.898438 -11.929688 10.390625 -11.703125 C 10.640625 -11.554688 10.785156 -11.351562 10.828125 -11.09375 C 10.878906 -10.5625 10.90625 -10.035156 10.90625 -9.515625 C 10.875 -7.671875 10.859375 -5.394531 10.859375 -2.6875 C 10.890625 -2.707031 11.113281 -2.898438 11.53125 -3.265625 C 12.082031 -3.773438 12.78125 -4.382812 13.625 -5.09375 C 14.476562 -5.800781 15.28125 -6.429688 16.03125 -6.984375 C 16.78125 -7.546875 17.296875 -7.835938 17.578125 -7.859375 Z M 7.421875 7.953125 C 7.421875 7.703125 7.4375 7.441406 7.46875 7.171875 C 7.488281 6.191406 7.519531 5.195312 7.5625 4.1875 C 7.5625 4.144531 7.546875 4.085938 7.515625 4.015625 C 7.484375 3.953125 7.441406 3.90625 7.390625 3.875 C 7.273438 3.789062 7.175781 3.773438 7.09375 3.828125 C 7.019531 3.890625 6.945312 3.953125 6.875 4.015625 C 5.925781 5.253906 5.023438 6.65625 4.171875 8.21875 C 3.328125 9.78125 2.664062 11.40625 2.1875 13.09375 C 1.71875 14.789062 1.523438 16.445312 1.609375 18.0625 C 1.679688 19.070312 2 19.992188 2.5625 20.828125 C 3.25 21.773438 3.847656 22.113281 4.359375 21.84375 C 4.878906 21.582031 5.316406 20.929688 5.671875 19.890625 C 6.023438 18.859375 6.3125 17.640625 6.53125 16.234375 C 6.757812 14.828125 6.9375 13.453125 7.0625 12.109375 C 7.1875 10.765625 7.285156 9.644531 7.359375 8.75 C 7.378906 8.445312 7.398438 8.179688 7.421875 7.953125 Z M 7.421875 7.953125 "/></g></g></g><g fill="#000000" fill-opacity="1"><g transform="translate(274.542161, 71.016371)"><g><path d="M 24.4375 -7.59375 C 24.53125 -7.769531 24.671875 -7.863281 24.859375 -7.875 C 25.046875 -7.882812 25.207031 -7.765625 25.34375 -7.515625 C 25.394531 -7.453125 25.347656 -7.28125 25.203125 -7 C 25.054688 -6.71875 24.859375 -6.394531 24.609375 -6.03125 C 24.359375 -5.675781 24.117188 -5.347656 23.890625 -5.046875 C 23.660156 -4.753906 23.5 -4.5625 23.40625 -4.46875 C 22.375 -3.320312 21.335938 -2.484375 20.296875 -1.953125 C 19.265625 -1.421875 18.140625 -1.304688 16.921875 -1.609375 C 15.710938 -1.921875 14.351562 -2.785156 12.84375 -4.203125 C 12.613281 -4.453125 12.382812 -4.703125 12.15625 -4.953125 C 12.09375 -5.023438 12.035156 -5.09375 11.984375 -5.15625 C 11.734375 -5.4375 11.460938 -5.472656 11.171875 -5.265625 C 10.859375 -5.035156 10.539062 -4.804688 10.21875 -4.578125 C 9.9375 -4.367188 9.648438 -4.175781 9.359375 -4 C 8.390625 -3.332031 7.375 -2.769531 6.3125 -2.3125 C 5.164062 -1.8125 3.960938 -1.617188 2.703125 -1.734375 C 0.742188 -1.960938 -0.269531 -3.046875 -0.34375 -4.984375 C -0.363281 -6.347656 -0.0703125 -7.570312 0.53125 -8.65625 C 1.144531 -9.75 1.992188 -10.550781 3.078125 -11.0625 C 4.160156 -11.570312 5.410156 -11.675781 6.828125 -11.375 C 6.972656 -11.34375 7.175781 -11.296875 7.4375 -11.234375 C 7.59375 -11.179688 7.785156 -11.132812 8.015625 -11.09375 C 7.878906 -11.40625 7.753906 -11.6875 7.640625 -11.9375 C 7.429688 -12.351562 7.25 -12.734375 7.09375 -13.078125 C 6.15625 -15.015625 5.390625 -17.234375 4.796875 -19.734375 C 4.203125 -22.234375 3.910156 -24.796875 3.921875 -27.421875 C 3.929688 -30.046875 4.367188 -32.488281 5.234375 -34.75 C 6.109375 -37.019531 7.550781 -38.882812 9.5625 -40.34375 C 10.832031 -41.207031 12.148438 -41.675781 13.515625 -41.75 C 14.878906 -41.820312 16.164062 -41.523438 17.375 -40.859375 C 18.582031 -40.191406 19.566406 -39.195312 20.328125 -37.875 C 21.296875 -36.039062 21.894531 -34.113281 22.125 -32.09375 C 22.539062 -28.820312 22.472656 -25.769531 21.921875 -22.9375 C 21.367188 -20.101562 20.394531 -17.425781 19 -14.90625 C 17.613281 -12.382812 15.847656 -9.929688 13.703125 -7.546875 C 13.492188 -7.316406 13.382812 -7.132812 13.375 -7 C 13.363281 -6.875 13.460938 -6.6875 13.671875 -6.4375 C 14.109375 -5.863281 14.582031 -5.304688 15.09375 -4.765625 C 15.613281 -4.222656 16.1875 -3.769531 16.8125 -3.40625 C 17.707031 -3.019531 18.660156 -3.015625 19.671875 -3.390625 C 20.691406 -3.765625 21.632812 -4.347656 22.5 -5.140625 C 23.375 -5.929688 24.019531 -6.75 24.4375 -7.59375 Z M 9.15625 -6.234375 C 9.425781 -6.460938 9.445312 -6.71875 9.21875 -7 C 9.082031 -7.164062 8.945312 -7.335938 8.8125 -7.515625 C 8.4375 -7.972656 8.007812 -8.441406 7.53125 -8.921875 C 7.0625 -9.410156 6.566406 -9.78125 6.046875 -10.03125 C 5.535156 -10.28125 5.015625 -10.300781 4.484375 -10.09375 C 3.753906 -9.75 3.15625 -9.140625 2.6875 -8.265625 C 2.226562 -7.398438 1.957031 -6.507812 1.875 -5.59375 C 1.789062 -4.6875 1.960938 -3.992188 2.390625 -3.515625 C 2.828125 -3.035156 3.570312 -2.988281 4.625 -3.375 C 6.269531 -4.101562 7.78125 -5.054688 9.15625 -6.234375 Z M 12.609375 -9.609375 C 14.804688 -12.191406 16.445312 -14.734375 17.53125 -17.234375 C 18.613281 -19.734375 19.347656 -22.660156 19.734375 -26.015625 C 19.847656 -26.835938 19.898438 -27.910156 19.890625 -29.234375 C 19.878906 -30.566406 19.757812 -31.957031 19.53125 -33.40625 C 19.300781 -34.851562 18.890625 -36.171875 18.296875 -37.359375 C 17.703125 -38.546875 16.875 -39.398438 15.8125 -39.921875 C 14.75 -40.453125 13.382812 -40.453125 11.71875 -39.921875 C 9.894531 -38.859375 8.539062 -37.441406 7.65625 -35.671875 C 6.78125 -33.898438 6.28125 -31.925781 6.15625 -29.75 C 6.03125 -27.582031 6.171875 -25.367188 6.578125 -23.109375 C 6.984375 -20.847656 7.550781 -18.703125 8.28125 -16.671875 C 9.019531 -14.640625 9.8125 -12.875 10.65625 -11.375 C 10.75 -11.1875 10.84375 -11 10.9375 -10.8125 C 11.1875 -10.195312 11.546875 -9.640625 12.015625 -9.140625 C 12.085938 -9.203125 12.160156 -9.257812 12.234375 -9.3125 C 12.367188 -9.394531 12.492188 -9.492188 12.609375 -9.609375 Z M 12.609375 -9.609375 "/></g></g></g><g fill="#000000" fill-opacity="1"><g transform="translate(298.831303, 71.016371)"><g><path d="M 15.015625 -7.515625 C 15.242188 -7.648438 15.460938 -7.753906 15.671875 -7.828125 C 15.890625 -7.898438 16.03125 -7.894531 16.09375 -7.8125 C 16.164062 -7.726562 16.082031 -7.539062 15.84375 -7.25 C 15.0625 -6.363281 14.125 -5.546875 13.03125 -4.796875 C 11.945312 -4.054688 10.835938 -3.429688 9.703125 -2.921875 C 8.804688 -2.515625 7.863281 -2.191406 6.875 -1.953125 C 5.882812 -1.722656 4.898438 -1.675781 3.921875 -1.8125 C 2.953125 -1.945312 2.070312 -2.375 1.28125 -3.09375 C 0.0625 -4.21875 -0.441406 -5.585938 -0.234375 -7.203125 C -0.0546875 -8.492188 0.441406 -9.585938 1.265625 -10.484375 C 2.085938 -11.378906 3.128906 -11.988281 4.390625 -12.3125 C 5.441406 -12.539062 6.488281 -12.566406 7.53125 -12.390625 C 8.007812 -12.316406 8.445312 -12.15625 8.84375 -11.90625 C 9.207031 -11.625 9.40625 -11.296875 9.4375 -10.921875 C 9.476562 -10.554688 9.335938 -10.203125 9.015625 -9.859375 C 8.347656 -9.265625 7.582031 -8.910156 6.71875 -8.796875 C 5.738281 -8.628906 4.753906 -8.523438 3.765625 -8.484375 C 3.285156 -8.484375 2.945312 -8.382812 2.75 -8.1875 C 2.5625 -7.988281 2.453125 -7.648438 2.421875 -7.171875 C 2.273438 -5.878906 2.691406 -4.820312 3.671875 -4 C 4.285156 -3.507812 5.03125 -3.300781 5.90625 -3.375 C 6.78125 -3.445312 7.710938 -3.679688 8.703125 -4.078125 C 9.691406 -4.484375 10.65625 -4.953125 11.59375 -5.484375 C 12.539062 -6.023438 13.394531 -6.53125 14.15625 -7 C 14.476562 -7.207031 14.765625 -7.378906 15.015625 -7.515625 Z M 4.1875 -10.296875 C 4.1875 -10.273438 4.171875 -10.265625 4.140625 -10.265625 C 4.097656 -10.222656 4.039062 -10.171875 3.96875 -10.109375 C 3.90625 -10.054688 3.84375 -10 3.78125 -9.9375 C 3.726562 -9.882812 3.703125 -9.847656 3.703125 -9.828125 C 3.722656 -9.753906 3.910156 -9.734375 4.265625 -9.765625 C 4.617188 -9.804688 5.007812 -9.867188 5.4375 -9.953125 C 5.863281 -10.046875 6.21875 -10.164062 6.5 -10.3125 C 6.78125 -10.46875 6.867188 -10.648438 6.765625 -10.859375 C 6.710938 -10.921875 6.644531 -10.972656 6.5625 -11.015625 C 6.488281 -11.066406 6.40625 -11.101562 6.3125 -11.125 C 5.894531 -11.125 5.515625 -11.039062 5.171875 -10.875 C 4.828125 -10.71875 4.5 -10.523438 4.1875 -10.296875 Z M 4.1875 -10.296875 "/></g></g></g></svg>